<?xml version="1.0" encoding="UTF-8"?><svg xmlns="http://www.w3.org/2000/svg" xmlns:xlink="http://www.w3.org/1999/xlink" fill-opacity="1" color-rendering="auto" color-interpolation="auto" text-rendering="auto" stroke="black" stroke-linecap="square" width="2000" stroke-miterlimit="10" shape-rendering="auto" stroke-opacity="1" fill="black" stroke-dasharray="none" font-weight="normal" stroke-width="1" height="2053" font-family="'Dialog'" font-style="normal" stroke-linejoin="miter" font-size="12px" stroke-dashoffset="0" image-rendering="auto">
  <!--Generated by ySVG 2.5-->
  <defs id="genericDefs"/>
  <g>
    <defs id="defs1">
      <clipPath clipPathUnits="userSpaceOnUse" id="clipPath1">
        <path d="M0 0 L2000 0 L2000 2053 L0 2053 L0 0 Z"/>
      </clipPath>
      <clipPath clipPathUnits="userSpaceOnUse" id="clipPath2">
        <path d="M116 -12 L565 -12 L565 448.8985 L116 448.8985 L116 -12 Z"/>
      </clipPath>
    </defs>
    <g fill="rgb(153,204,255)" text-rendering="geometricPrecision" shape-rendering="geometricPrecision" transform="matrix(4.4543,0,0,4.4543,-516.7038,53.4521)" stroke="rgb(153,204,255)">
      <rect x="209.0148" width="30" height="30" y="99.4172" clip-path="url(#clipPath2)" stroke="none"/>
    </g>
    <g text-rendering="geometricPrecision" stroke-miterlimit="1.45" shape-rendering="geometricPrecision" transform="matrix(4.4543,0,0,4.4543,-516.7038,53.4521)" stroke-linecap="butt">
      <rect fill="none" x="209.0148" width="30" height="30" y="99.4172" clip-path="url(#clipPath2)"/>
      <text x="213.4269" xml:space="preserve" y="119.0725" clip-path="url(#clipPath2)" font-family="sans-serif" stroke="none">test</text>
    </g>
    <g fill="rgb(153,204,255)" text-rendering="geometricPrecision" shape-rendering="geometricPrecision" transform="matrix(4.4543,0,0,4.4543,-516.7038,53.4521)" stroke="rgb(153,204,255)">
      <rect x="417.7573" width="30" height="30" y="99.4172" clip-path="url(#clipPath2)" stroke="none"/>
    </g>
    <g text-rendering="geometricPrecision" stroke-miterlimit="1.45" shape-rendering="geometricPrecision" transform="matrix(4.4543,0,0,4.4543,-516.7038,53.4521)" stroke-linecap="butt">
      <rect fill="none" x="417.7573" width="30" height="30" y="99.4172" clip-path="url(#clipPath2)"/>
      <text x="418.8647" xml:space="preserve" y="119.0725" clip-path="url(#clipPath2)" font-family="sans-serif" stroke="none">test2</text>
    </g>
    <g fill="rgb(173,216,45)" text-rendering="geometricPrecision" shape-rendering="geometricPrecision" transform="matrix(4.4543,0,0,4.4543,-516.7038,53.4521)" stroke="rgb(173,216,45)">
      <rect x="191.0148" y="154.2824" clip-path="url(#clipPath2)" width="66" rx="4" ry="4" height="30" stroke="none"/>
    </g>
    <g text-rendering="geometricPrecision" stroke-miterlimit="1.45" shape-rendering="geometricPrecision" transform="matrix(4.4543,0,0,4.4543,-516.7038,53.4521)" stroke-linecap="butt">
      <rect x="191.0148" y="154.2824" clip-path="url(#clipPath2)" fill="none" width="66" rx="4" ry="4" height="30"/>
      <text x="199.7276" xml:space="preserve" y="173.9377" clip-path="url(#clipPath2)" font-family="sans-serif" stroke="none">Scenario</text>
    </g>
    <g fill="rgb(153,204,255)" text-rendering="geometricPrecision" shape-rendering="geometricPrecision" transform="matrix(4.4543,0,0,4.4543,-516.7038,53.4521)" stroke="rgb(153,204,255)">
      <rect x="257.0148" width="30" height="30" y="203.6412" clip-path="url(#clipPath2)" stroke="none"/>
    </g>
    <g text-rendering="geometricPrecision" stroke-miterlimit="1.45" shape-rendering="geometricPrecision" transform="matrix(4.4543,0,0,4.4543,-516.7038,53.4521)" stroke-linecap="butt">
      <rect fill="none" x="257.0148" width="30" height="30" y="203.6412" clip-path="url(#clipPath2)"/>
      <text x="259.5167" xml:space="preserve" y="223.2965" clip-path="url(#clipPath2)" font-family="sans-serif" stroke="none">loop</text>
    </g>
    <g fill="rgb(255,204,0)" text-rendering="geometricPrecision" shape-rendering="geometricPrecision" transform="matrix(4.4543,0,0,4.4543,-516.7038,53.4521)" stroke="rgb(255,204,0)">
      <rect x="257.0148" y="256.3532" clip-path="url(#clipPath2)" width="30" rx="4" ry="4" height="30" stroke="none"/>
    </g>
    <g text-rendering="geometricPrecision" stroke-miterlimit="1.45" shape-rendering="geometricPrecision" transform="matrix(4.4543,0,0,4.4543,-516.7038,53.4521)" stroke-linecap="butt">
      <rect x="257.0148" y="256.3532" clip-path="url(#clipPath2)" fill="none" width="30" rx="4" ry="4" height="30"/>
      <text x="257.92" xml:space="preserve" y="276.0085" clip-path="url(#clipPath2)" font-family="sans-serif" stroke="none">Loop</text>
    </g>
    <g fill="rgb(153,204,255)" text-rendering="geometricPrecision" shape-rendering="geometricPrecision" transform="matrix(4.4543,0,0,4.4543,-516.7038,53.4521)" stroke="rgb(153,204,255)">
      <rect x="240.826" width="66" height="30" y="305.3232" clip-path="url(#clipPath2)" stroke="none"/>
    </g>
    <g text-rendering="geometricPrecision" stroke-miterlimit="1.45" shape-rendering="geometricPrecision" transform="matrix(4.4543,0,0,4.4543,-516.7038,53.4521)" stroke-linecap="butt">
      <rect fill="none" x="240.826" width="66" height="30" y="305.3232" clip-path="url(#clipPath2)"/>
      <text x="252.867" xml:space="preserve" y="324.9785" clip-path="url(#clipPath2)" font-family="sans-serif" stroke="none">pattern</text>
    </g>
    <g fill="rgb(153,204,255)" text-rendering="geometricPrecision" shape-rendering="geometricPrecision" transform="matrix(4.4543,0,0,4.4543,-516.7038,53.4521)" stroke="rgb(153,204,255)">
      <rect x="230.6373" width="30" height="30" y="403.2632" clip-path="url(#clipPath2)" stroke="none"/>
    </g>
    <g text-rendering="geometricPrecision" stroke-miterlimit="1.45" shape-rendering="geometricPrecision" transform="matrix(4.4543,0,0,4.4543,-516.7038,53.4521)" stroke-linecap="butt">
      <rect fill="none" x="230.6373" width="30" height="30" y="403.2632" clip-path="url(#clipPath2)"/>
    </g>
    <g fill="rgb(153,204,255)" text-rendering="geometricPrecision" shape-rendering="geometricPrecision" transform="matrix(4.4543,0,0,4.4543,-516.7038,53.4521)" stroke="rgb(153,204,255)">
      <rect x="290.6373" width="30" height="30" y="403.2632" clip-path="url(#clipPath2)" stroke="none"/>
    </g>
    <g text-rendering="geometricPrecision" stroke-miterlimit="1.45" shape-rendering="geometricPrecision" transform="matrix(4.4543,0,0,4.4543,-516.7038,53.4521)" stroke-linecap="butt">
      <rect fill="none" x="290.6373" width="30" height="30" y="403.2632" clip-path="url(#clipPath2)"/>
    </g>
    <g fill="rgb(153,204,255)" text-rendering="geometricPrecision" shape-rendering="geometricPrecision" transform="matrix(4.4543,0,0,4.4543,-516.7038,53.4521)" stroke="rgb(153,204,255)">
      <rect x="147.8148" width="30" height="30" y="305.3232" clip-path="url(#clipPath2)" stroke="none"/>
    </g>
    <g text-rendering="geometricPrecision" stroke-miterlimit="1.45" shape-rendering="geometricPrecision" transform="matrix(4.4543,0,0,4.4543,-516.7038,53.4521)" stroke-linecap="butt">
      <rect fill="none" x="147.8148" width="30" height="30" y="305.3232" clip-path="url(#clipPath2)"/>
    </g>
    <g fill="rgb(173,216,45)" text-rendering="geometricPrecision" shape-rendering="geometricPrecision" transform="matrix(4.4543,0,0,4.4543,-516.7038,53.4521)" stroke="rgb(173,216,45)">
      <rect x="399.7573" y="154.2824" clip-path="url(#clipPath2)" width="66" rx="4" ry="4" height="30" stroke="none"/>
    </g>
    <g text-rendering="geometricPrecision" stroke-miterlimit="1.45" shape-rendering="geometricPrecision" transform="matrix(4.4543,0,0,4.4543,-516.7038,53.4521)" stroke-linecap="butt">
      <rect x="399.7573" y="154.2824" clip-path="url(#clipPath2)" fill="none" width="66" rx="4" ry="4" height="30"/>
      <text x="408.4702" xml:space="preserve" y="173.9377" clip-path="url(#clipPath2)" font-family="sans-serif" stroke="none">Scenario</text>
    </g>
    <g fill="rgb(173,216,45)" text-rendering="geometricPrecision" shape-rendering="geometricPrecision" transform="matrix(4.4543,0,0,4.4543,-516.7038,53.4521)" stroke="rgb(173,216,45)">
      <rect x="240.826" y="354.2932" clip-path="url(#clipPath2)" width="66" rx="4" ry="4" height="30" stroke="none"/>
    </g>
    <g text-rendering="geometricPrecision" stroke-miterlimit="1.45" shape-rendering="geometricPrecision" transform="matrix(4.4543,0,0,4.4543,-516.7038,53.4521)" stroke-linecap="butt">
      <rect x="240.826" y="354.2932" clip-path="url(#clipPath2)" fill="none" width="66" rx="4" ry="4" height="30"/>
      <text x="249.5389" xml:space="preserve" y="373.9485" clip-path="url(#clipPath2)" font-family="sans-serif" stroke="none">Scenario</text>
    </g>
    <g fill="rgb(173,216,45)" text-rendering="geometricPrecision" shape-rendering="geometricPrecision" transform="matrix(4.4543,0,0,4.4543,-516.7038,53.4521)" stroke="rgb(173,216,45)">
      <rect x="399.7573" y="256.3532" clip-path="url(#clipPath2)" width="66" rx="4" ry="4" height="30" stroke="none"/>
    </g>
    <g text-rendering="geometricPrecision" stroke-miterlimit="1.45" shape-rendering="geometricPrecision" transform="matrix(4.4543,0,0,4.4543,-516.7038,53.4521)" stroke-linecap="butt">
      <rect x="399.7573" y="256.3532" clip-path="url(#clipPath2)" fill="none" width="66" rx="4" ry="4" height="30"/>
      <text x="408.4702" xml:space="preserve" y="276.0085" clip-path="url(#clipPath2)" font-family="sans-serif" stroke="none">Scenario</text>
    </g>
    <g fill="rgb(173,216,45)" text-rendering="geometricPrecision" shape-rendering="geometricPrecision" transform="matrix(4.4543,0,0,4.4543,-516.7038,53.4521)" stroke="rgb(173,216,45)">
      <rect x="131.8148" y="256.3532" clip-path="url(#clipPath2)" width="66" rx="4" ry="4" height="30" stroke="none"/>
    </g>
    <g text-rendering="geometricPrecision" stroke-miterlimit="1.45" shape-rendering="geometricPrecision" transform="matrix(4.4543,0,0,4.4543,-516.7038,53.4521)" stroke-linecap="butt">
      <rect x="131.8148" y="256.3532" clip-path="url(#clipPath2)" fill="none" width="66" rx="4" ry="4" height="30"/>
      <text x="140.5276" xml:space="preserve" y="276.0085" clip-path="url(#clipPath2)" font-family="sans-serif" stroke="none">Scenario</text>
    </g>
    <g fill="rgb(153,204,255)" text-rendering="geometricPrecision" shape-rendering="geometricPrecision" transform="matrix(4.4543,0,0,4.4543,-516.7038,53.4521)" stroke="rgb(153,204,255)">
      <rect x="408.7573" width="48" height="30" y="203.6412" clip-path="url(#clipPath2)" stroke="none"/>
    </g>
    <g text-rendering="geometricPrecision" stroke-miterlimit="1.45" shape-rendering="geometricPrecision" transform="matrix(4.4543,0,0,4.4543,-516.7038,53.4521)" stroke-linecap="butt">
      <rect fill="none" x="408.7573" width="48" height="30" y="203.6412" clip-path="url(#clipPath2)"/>
      <text x="414.0659" xml:space="preserve" y="223.2965" clip-path="url(#clipPath2)" font-family="sans-serif" stroke="none">scenar</text>
    </g>
    <g fill="rgb(153,204,255)" text-rendering="geometricPrecision" shape-rendering="geometricPrecision" transform="matrix(4.4543,0,0,4.4543,-516.7038,53.4521)" stroke="rgb(153,204,255)">
      <rect x="140.8148" width="48" height="30" y="203.6412" clip-path="url(#clipPath2)" stroke="none"/>
    </g>
    <g text-rendering="geometricPrecision" stroke-miterlimit="1.45" shape-rendering="geometricPrecision" transform="matrix(4.4543,0,0,4.4543,-516.7038,53.4521)" stroke-linecap="butt">
      <rect fill="none" x="140.8148" width="48" height="30" y="203.6412" clip-path="url(#clipPath2)"/>
      <text x="146.1234" xml:space="preserve" y="223.2965" clip-path="url(#clipPath2)" font-family="sans-serif" stroke="none">scenar</text>
    </g>
    <g fill="rgb(153,204,255)" text-rendering="geometricPrecision" shape-rendering="geometricPrecision" transform="matrix(4.4543,0,0,4.4543,-516.7038,53.4521)" stroke="rgb(153,204,255)">
      <rect x="378.4225" width="30" height="30" y="305.3232" clip-path="url(#clipPath2)" stroke="none"/>
    </g>
    <g text-rendering="geometricPrecision" stroke-miterlimit="1.45" shape-rendering="geometricPrecision" transform="matrix(4.4543,0,0,4.4543,-516.7038,53.4521)" stroke-linecap="butt">
      <rect fill="none" x="378.4225" width="30" height="30" y="305.3232" clip-path="url(#clipPath2)"/>
    </g>
    <g fill="rgb(153,204,255)" text-rendering="geometricPrecision" shape-rendering="geometricPrecision" transform="matrix(4.4543,0,0,4.4543,-516.7038,53.4521)" stroke="rgb(153,204,255)">
      <rect x="422.0899" width="30" height="30" y="305.3232" clip-path="url(#clipPath2)" stroke="none"/>
    </g>
    <g text-rendering="geometricPrecision" stroke-miterlimit="1.45" shape-rendering="geometricPrecision" transform="matrix(4.4543,0,0,4.4543,-516.7038,53.4521)" stroke-linecap="butt">
      <rect fill="none" x="422.0899" width="30" height="30" y="305.3232" clip-path="url(#clipPath2)"/>
    </g>
    <g fill="rgb(153,204,255)" text-rendering="geometricPrecision" shape-rendering="geometricPrecision" transform="matrix(4.4543,0,0,4.4543,-516.7038,53.4521)" stroke="rgb(153,204,255)">
      <rect x="465.7573" width="30" height="30" y="305.3232" clip-path="url(#clipPath2)" stroke="none"/>
    </g>
    <g text-rendering="geometricPrecision" stroke-miterlimit="1.45" shape-rendering="geometricPrecision" transform="matrix(4.4543,0,0,4.4543,-516.7038,53.4521)" stroke-linecap="butt">
      <rect fill="none" x="465.7573" width="30" height="30" y="305.3232" clip-path="url(#clipPath2)"/>
    </g>
    <g fill="rgb(153,204,255)" text-rendering="geometricPrecision" shape-rendering="geometricPrecision" transform="matrix(4.4543,0,0,4.4543,-516.7038,53.4521)" stroke="rgb(153,204,255)">
      <rect x="348.7573" width="30" height="30" y="203.6412" clip-path="url(#clipPath2)" stroke="none"/>
    </g>
    <g text-rendering="geometricPrecision" stroke-miterlimit="1.45" shape-rendering="geometricPrecision" transform="matrix(4.4543,0,0,4.4543,-516.7038,53.4521)" stroke-linecap="butt">
      <rect fill="none" x="348.7573" width="30" height="30" y="203.6412" clip-path="url(#clipPath2)"/>
    </g>
    <g fill="rgb(173,216,45)" text-rendering="geometricPrecision" shape-rendering="geometricPrecision" transform="matrix(4.4543,0,0,4.4543,-516.7038,53.4521)" stroke="rgb(173,216,45)">
      <rect x="295.386" y="51.6417" clip-path="url(#clipPath2)" width="66" rx="4" ry="4" height="30" stroke="none"/>
    </g>
    <g text-rendering="geometricPrecision" stroke-miterlimit="1.45" shape-rendering="geometricPrecision" transform="matrix(4.4543,0,0,4.4543,-516.7038,53.4521)" stroke-linecap="butt">
      <rect x="295.386" y="51.6417" clip-path="url(#clipPath2)" fill="none" width="66" rx="4" ry="4" height="30"/>
      <text x="304.0989" xml:space="preserve" y="71.2969" clip-path="url(#clipPath2)" font-family="sans-serif" stroke="none">Scenario</text>
    </g>
    <g fill="rgb(153,204,255)" text-rendering="geometricPrecision" shape-rendering="geometricPrecision" transform="matrix(4.4543,0,0,4.4543,-516.7038,53.4521)" stroke="rgb(153,204,255)">
      <rect x="313.386" width="30" height="30" y="3.2417" clip-path="url(#clipPath2)" stroke="none"/>
    </g>
    <g text-rendering="geometricPrecision" stroke-miterlimit="1.45" shape-rendering="geometricPrecision" transform="matrix(4.4543,0,0,4.4543,-516.7038,53.4521)" stroke-linecap="butt">
      <rect fill="none" x="313.386" width="30" height="30" y="3.2417" clip-path="url(#clipPath2)"/>
      <text x="315.2288" xml:space="preserve" y="22.8969" clip-path="url(#clipPath2)" font-family="sans-serif" stroke="none">Root</text>
    </g>
    <g fill="rgb(246,153,153)" text-rendering="geometricPrecision" shape-rendering="geometricPrecision" transform="matrix(4.4543,0,0,4.4543,-516.7038,53.4521)" stroke="rgb(246,153,153)">
      <rect x="474.7594" y="256.3532" clip-path="url(#clipPath2)" width="74.8" rx="4" ry="4" height="30" stroke="none"/>
    </g>
    <g text-rendering="geometricPrecision" stroke-miterlimit="1.45" shape-rendering="geometricPrecision" transform="matrix(4.4543,0,0,4.4543,-516.7038,53.4521)" stroke-linecap="butt">
      <rect x="474.7594" y="256.3532" clip-path="url(#clipPath2)" fill="none" width="74.8" rx="4" ry="4" height="30"/>
      <text x="478.7932" xml:space="preserve" y="276.0085" clip-path="url(#clipPath2)" font-family="sans-serif" stroke="none">Automation</text>
    </g>
    <g fill="rgb(153,204,255)" text-rendering="geometricPrecision" shape-rendering="geometricPrecision" transform="matrix(4.4543,0,0,4.4543,-516.7038,53.4521)" stroke="rgb(153,204,255)">
      <rect x="486.7573" width="48" height="30" y="203.6412" clip-path="url(#clipPath2)" stroke="none"/>
    </g>
    <g text-rendering="geometricPrecision" stroke-miterlimit="1.45" shape-rendering="geometricPrecision" transform="matrix(4.4543,0,0,4.4543,-516.7038,53.4521)" stroke-linecap="butt">
      <rect fill="none" x="486.7573" width="48" height="30" y="203.6412" clip-path="url(#clipPath2)"/>
      <text x="492.2768" xml:space="preserve" y="223.2965" clip-path="url(#clipPath2)" font-family="sans-serif" stroke="none">autom</text>
      <path fill="none" d="M224.0148 154.307 L224.0148 137.4172" clip-path="url(#clipPath2)"/>
      <path d="M224.0148 129.4172 L219.0148 141.4172 L224.0148 138.4172 L229.0148 141.4172 Z" clip-path="url(#clipPath2)" stroke="none"/>
      <path fill="none" d="M257.4277 203.6412 L244.1776 190.0161" clip-path="url(#clipPath2)"/>
      <path d="M238.6003 184.2809 L243.3818 196.3696 L244.8748 190.733 L250.5509 189.3979 Z" clip-path="url(#clipPath2)" stroke="none"/>
      <path fill="none" d="M272.0147 256.3478 L272.0147 241.6412" clip-path="url(#clipPath2)"/>
      <path d="M272.0147 233.6412 L267.0147 245.6412 L272.0147 242.6412 L277.0147 245.6412 Z" clip-path="url(#clipPath2)" stroke="none"/>
      <path fill="none" d="M273.2712 305.3232 L272.8663 294.3755" clip-path="url(#clipPath2)"/>
      <path d="M272.5706 286.381 L268.0175 298.5576 L272.9032 295.3748 L278.0107 298.188 Z" clip-path="url(#clipPath2)" stroke="none"/>
      <path fill="none" d="M432.7573 154.307 L432.7573 137.4172" clip-path="url(#clipPath2)"/>
      <path d="M432.7573 129.4172 L427.7573 141.4172 L432.7573 138.4172 L437.7573 141.4172 Z" clip-path="url(#clipPath2)" stroke="none"/>
      <path fill="none" d="M254.2717 403.2632 L261.1845 391.2543" clip-path="url(#clipPath2)"/>
      <path d="M265.1755 384.321 L254.8556 392.2266 L260.6856 392.121 L263.5223 397.2154 Z" clip-path="url(#clipPath2)" stroke="none"/>
      <path fill="none" d="M295.8932 403.2632 L287.9462 391.0297" clip-path="url(#clipPath2)"/>
      <path d="M283.5881 384.321 L285.9323 397.1079 L288.4909 391.8683 L294.3182 391.6603 Z" clip-path="url(#clipPath2)" stroke="none"/>
      <path fill="none" d="M273.826 354.3249 L273.826 343.3232" clip-path="url(#clipPath2)"/>
      <path d="M273.826 335.3232 L268.826 347.3232 L273.826 344.3232 L278.826 347.3232 Z" clip-path="url(#clipPath2)" stroke="none"/>
      <path fill="none" d="M163.4274 305.3232 L163.8745 294.3743" clip-path="url(#clipPath2)"/>
      <path d="M164.201 286.381 L158.7155 298.1669 L163.8337 295.3734 L168.7072 298.575 Z" clip-path="url(#clipPath2)" stroke="none"/>
      <path fill="none" d="M432.7573 256.3478 L432.7573 241.6412" clip-path="url(#clipPath2)"/>
      <path d="M432.7573 233.6412 L427.7573 245.6412 L432.7573 242.6412 L437.7573 245.6412 Z" clip-path="url(#clipPath2)" stroke="none"/>
      <path fill="none" d="M432.7573 203.6412 L432.7573 192.2809" clip-path="url(#clipPath2)"/>
      <path d="M432.7573 184.2809 L427.7573 196.2809 L432.7573 193.2809 L437.7573 196.2809 Z" clip-path="url(#clipPath2)" stroke="none"/>
      <path fill="none" d="M164.8148 256.3478 L164.8148 241.6412" clip-path="url(#clipPath2)"/>
      <path d="M164.8148 233.6412 L159.8148 245.6412 L164.8148 242.6412 L169.8148 245.6412 Z" clip-path="url(#clipPath2)" stroke="none"/>
      <path fill="none" d="M182.8055 203.6412 L199.8613 189.4207" clip-path="url(#clipPath2)"/>
      <path d="M206.0058 184.2976 L193.5872 188.1419 L199.0933 190.0611 L199.991 195.8225 Z" clip-path="url(#clipPath2)" stroke="none"/>
      <path fill="none" d="M405.4711 305.3232 L415.6765 292.618" clip-path="url(#clipPath2)"/>
      <path d="M420.6863 286.381 L409.2733 292.6054 L415.0502 293.3977 L417.0697 298.8677 Z" clip-path="url(#clipPath2)" stroke="none"/>
      <path fill="none" d="M435.7628 305.3232 L434.7919 294.3498" clip-path="url(#clipPath2)"/>
      <path d="M434.0868 286.381 L430.1638 298.7749 L434.88 295.3459 L440.1249 297.8936 Z" clip-path="url(#clipPath2)" stroke="none"/>
      <path fill="none" d="M466.0544 305.3232 L453.0873 292.0941" clip-path="url(#clipPath2)"/>
      <path d="M447.4873 286.381 L452.3166 298.4507 L453.7873 292.8083 L459.458 291.4507 Z" clip-path="url(#clipPath2)" stroke="none"/>
      <path fill="none" d="M378.7573 207.9111 L405.2887 188.9319" clip-path="url(#clipPath2)"/>
      <path d="M411.7953 184.2774 L399.1264 187.1925 L404.4754 189.5137 L404.9445 195.3258 Z" clip-path="url(#clipPath2)" stroke="none"/>
      <path fill="none" d="M239.0148 107.551 L289.8232 84.2936" clip-path="url(#clipPath2)"/>
      <path d="M297.0974 80.9639 L284.1051 81.4122 L288.9139 84.7099 L288.2672 90.5048 Z" clip-path="url(#clipPath2)" stroke="none"/>
      <path fill="none" d="M417.7573 107.551 L366.9488 84.2936" clip-path="url(#clipPath2)"/>
      <path d="M359.6747 80.9639 L368.5048 90.5048 L367.8581 84.7099 L372.6669 81.4122 Z" clip-path="url(#clipPath2)" stroke="none"/>
      <path fill="none" d="M328.386 51.6585 L328.386 41.2417" clip-path="url(#clipPath2)"/>
      <path d="M328.386 33.2417 L323.386 45.2417 L328.386 42.2417 L333.386 45.2417 Z" clip-path="url(#clipPath2)" stroke="none"/>
      <path fill="none" d="M511.7603 256.3478 L511.369 241.6384" clip-path="url(#clipPath2)"/>
      <path d="M511.1562 233.6412 L506.4771 245.7699 L511.3956 242.638 L516.4736 245.504 Z" clip-path="url(#clipPath2)" stroke="none"/>
      <path fill="none" d="M487.0533 203.6412 L463.2454 188.5755" clip-path="url(#clipPath2)"/>
      <path d="M456.4853 184.2976 L463.9518 194.9395 L464.0905 189.1102 L469.2992 186.4893 Z" clip-path="url(#clipPath2)" stroke="none"/>
    </g>
  </g>
</svg>
